<svg width="20" height="20" viewBox="0 0 20 20" fill="none" xmlns="http://www.w3.org/2000/svg">
<g clip-path="url(#clip0_170_1156)">
<path d="M20.3323 5.056C20.3321 4.65242 20.2458 4.29583 20.0715 3.98983C19.9003 3.68883 19.6437 3.43667 19.2997 3.23717C16.4596 1.598 13.6168 -0.0361662 10.7777 -1.677C10.0122 -2.11925 9.27008 -2.10317 8.51033 -1.6545C7.37992 -0.987166 1.72025 2.2585 0.0337501 3.23625C-0.66075 3.63875 -0.99875 4.25467 -0.998917 5.05525C-1 8.35175 -0.998917 11.6481 -1 14.9447C-0.999833 15.3393 -0.91725 15.689 -0.750583 15.9905C-0.57925 16.3005 -0.319167 16.5597 0.0328333 16.7637C1.71942 17.7414 7.37983 20.9868 8.51 21.6543C9.27008 22.1033 10.0123 22.1193 10.7779 21.6768C13.6171 20.0359 16.4601 18.4018 19.3006 16.7627C19.6526 16.5588 19.9127 16.2994 20.084 15.9897C20.2504 15.6882 20.3332 15.3385 20.3333 14.9438C20.3333 14.9438 20.3333 8.35258 20.3323 5.056Z" fill="#A9B9CB"/>
<path d="M10.7584 -1.65632C9.99425 -2.09748 9.25333 -2.0814 8.49483 -1.6339C7.36625 -0.968318 1.71583 2.26893 0.0320834 3.24418C-0.661333 3.6456 -0.99875 4.25993 -0.998917 5.05843C-1 8.34635 -0.998917 11.6342 -1 14.9222C-0.999833 15.3159 -0.917417 15.6646 -0.751 15.9653C-0.579917 16.2745 -0.32025 16.533 0.0311667 16.7364C0.590722 17.0599 1.15069 17.3827 1.71108 17.7048L17.3021 2.11377C15.1206 0.857599 12.9385 -0.397568 10.7584 -1.65632Z" fill="#7F8B99"/>
<path d="M11.8717 8.49733L15.1916 8.52075C15.1916 7.1375 13.7914 3.75 9.77717 3.75C7.21958 3.75 3.78125 5.376 3.78125 10.0508C3.78125 14.7256 7.15183 16.25 9.77717 16.25C14.0286 16.25 15.0447 13.3082 15.0447 11.6457L11.8774 11.4646C11.8774 11.4646 11.9622 13.3875 9.76025 13.3875C7.72775 13.3875 7.38858 10.8977 7.38858 10.0508C7.38858 8.76358 7.84633 6.69717 9.76025 6.69717C11.6742 6.69717 11.8717 8.49733 11.8717 8.49733Z" fill="white"/>
</g>
<defs>
<clipPath id="clip0_170_1156">
<rect width="20" height="20" fill="white"/>
</clipPath>
</defs>
</svg>
