<svg width="20" height="20" viewBox="0 0 20 20" fill="none" xmlns="http://www.w3.org/2000/svg">
<g clip-path="url(#clip0_170_1157)">
<path d="M8.83954 11.4496C9.34627 12.3341 10.2988 12.9308 11.3916 12.9308C12.4911 12.9308 13.4491 12.3266 13.9533 11.4325L11.4188 9.96436L8.83954 11.4496Z" fill="#1A4674"/>
<path d="M20.3323 5.87431C20.3321 5.5384 20.2458 5.24153 20.0714 4.98674C19.9002 4.73618 19.6437 4.52618 19.2997 4.36014C16.4597 2.99549 13.6168 1.635 10.7777 0.268959C10.0122 -0.0993051 9.27017 -0.0859024 8.51033 0.287709C7.37992 0.843264 1.72033 3.54535 0.0337501 4.35938C-0.66075 4.69445 -0.99875 5.20722 -0.998917 5.87361C-1 8.61813 -0.998917 11.3625 -1 14.107C-1 14.4355 -0.91725 14.7267 -0.750583 14.9776C-0.57925 15.2358 -0.319167 15.4515 0.0328333 15.6213C1.7195 16.4353 7.37983 19.1373 8.51 19.6929C9.27008 20.0667 10.0123 20.0801 10.7779 19.7117C13.6171 18.3456 16.4601 16.9851 19.3006 15.6205C19.6526 15.4508 19.9127 15.2349 20.084 14.9769C20.2504 14.726 20.3333 14.4349 20.3333 14.1062C20.3333 14.1062 20.3333 8.61882 20.3323 5.87431Z" fill="#649AD2"/>
<path d="M9.69805 9.96419L-0.751953 14.9782C-0.580536 15.2363 -0.320453 15.4521 0.031547 15.6219C1.71821 16.4359 7.37855 19.1379 8.50871 19.6935C9.2688 20.0672 10.011 20.0807 10.7766 19.7122C13.6158 18.3461 16.4588 16.9857 19.2993 15.6211C19.6513 15.4513 19.9114 15.2354 20.0827 14.9775L9.69805 9.96419Z" fill="#004482"/>
<path d="M20.3323 5.87431C20.3321 5.5384 20.2458 5.24153 20.0714 4.98674L9.69922 9.96385L20.084 14.9769C20.2504 14.726 20.3333 14.4349 20.3333 14.1062C20.3333 14.1062 20.3333 8.61882 20.3323 5.87431Z" fill="#01589C"/>
<path d="M19.7611 10.3223H18.9496V10.9987H18.1379V10.3223H17.3265V9.64615H18.1379V8.9699H18.9496V9.64615H19.7611V10.3223ZM9.66653 4.08691C12.2611 4.08691 14.5297 5.24941 15.764 6.98337L15.801 7.03608L12.7176 8.51573C12.1065 7.64011 10.9694 7.05087 9.66653 7.05087C7.7182 7.05087 6.13878 8.36705 6.13878 9.9906C6.13813 10.5023 6.29855 11.0052 6.60403 11.4491C7.21212 12.3337 8.3552 12.9304 9.66653 12.9304C10.9714 12.9304 12.1103 12.3394 12.7204 11.4614L12.7405 11.4321L15.8194 12.9186C14.5986 14.6962 12.3004 15.8943 9.66653 15.8943C7.03745 15.8943 4.74286 14.7009 3.52036 12.9286C2.92353 12.0634 2.58203 11.0602 2.58203 9.9906C2.58203 6.73018 5.75378 4.08691 9.66653 4.08691ZM15.9886 8.96983V9.64608H16.8V10.3223H15.9886V10.9987H15.1771V10.3223H14.3656V9.64615H15.1771V8.9699L15.9886 8.96983Z" fill="white"/>
</g>
<defs>
<clipPath id="clip0_170_1157">
<rect width="20" height="20" fill="white"/>
</clipPath>
</defs>
</svg>
