<svg width="20" height="20" viewBox="0 0 20 20" fill="none" xmlns="http://www.w3.org/2000/svg">
<g clip-path="url(#clip0_170_1158)">
<path d="M10 20C15.5228 20 20 15.5228 20 10C20 4.47715 15.5228 0 10 0C4.47715 0 0 4.47715 0 10C0 15.5228 4.47715 20 10 20Z" fill="#05930C"/>
<path d="M3.0393 2.8208L17.1669 16.9744C15.3502 18.8411 12.8105 20.0005 10 20.0005C4.47719 20.0005 0 15.5233 0 10.0005C0 7.1833 1.16484 4.6383 3.0393 2.8208Z" fill="white" fill-opacity="0.1"/>
<path d="M9.50982 13.6093C8.82953 13.9403 8.07836 14.0991 7.32232 14.0718C6.82269 14.0937 6.32415 14.0086 5.86011 13.8221C5.39606 13.6356 4.97724 13.3521 4.63169 12.9906C3.93706 12.2119 3.57477 11.1923 3.62232 10.1499C3.59812 9.59083 3.68632 9.03255 3.8817 8.50812C4.07708 7.9837 4.37568 7.5038 4.75982 7.09682C5.13502 6.71296 5.58616 6.41159 6.08443 6.21196C6.58269 6.01233 7.11712 5.91884 7.65357 5.93745C8.2872 5.91327 8.91903 6.01963 9.50982 6.24995V7.23432C8.93681 6.91584 8.29032 6.75314 7.63482 6.76245C7.22668 6.74892 6.82036 6.82278 6.44309 6.97907C6.06582 7.13537 5.72631 7.3705 5.44732 7.6687C4.86216 8.33574 4.55955 9.20433 4.60357 10.0906C4.56028 10.9281 4.84245 11.75 5.39107 12.3843C5.6541 12.6671 5.97513 12.8898 6.33219 13.037C6.68924 13.1843 7.07389 13.2526 7.45982 13.2374C8.17994 13.2553 8.89084 13.0725 9.51294 12.7093L9.50982 13.6093ZM16.4879 8.2687L16.3629 8.84995H14.9254L14.5817 10.4999H16.1254L15.9786 11.0812H14.4661L13.9817 13.2687H13.2911L13.7629 11.0812H12.3879L11.9254 13.2687H11.2504L11.7129 11.0812H10.2629L10.3723 10.4999H11.8286L12.1629 8.85307H10.6411L10.7567 8.27182H12.2786L12.7411 6.06245H13.4379L12.9754 8.27182H14.3598L14.8317 6.06245H15.5067L15.0442 8.27182L16.4879 8.2687ZM14.2473 8.84995H12.8598L12.5004 10.4999H13.8942L14.2473 8.84995Z" fill="white"/>
</g>
<defs>
<clipPath id="clip0_170_1158">
<rect width="20" height="20" fill="white"/>
</clipPath>
</defs>
</svg>
