<svg width="20" height="20" viewBox="0 0 20 20" fill="none" xmlns="http://www.w3.org/2000/svg">
<g clip-path="url(#clip0_170_1163)">
<path d="M4.07883 15.921L0.657266 12.4994C0.251406 12.0834 0 11.4952 0 10.9203C0 10.6541 0.15 10.238 0.263203 9.99982L3.42156 3.42139L4.07883 15.921Z" fill="#01579B"/>
<path d="M15.7903 4.07883L12.3687 0.657266C12.0703 0.357266 11.4483 0 10.9219 0C10.4691 0 10.025 0.0911719 9.73827 0.263203L3.42303 3.42156L15.7903 4.07883ZM8.15764 20H16.4476V16.4476L10.2632 14.4729L4.60522 16.4476L8.15764 20Z" fill="#40C4FF"/>
<path d="M3.4212 14.0787C3.4212 15.1344 3.55355 15.3933 4.07847 15.9211L4.60488 16.4475H16.4472L10.6584 9.86904L3.4212 3.42139V14.0788V14.0787Z" fill="#29B6F6"/>
<path d="M13.9476 3.41943H3.4212L16.4472 16.4454H19.9996V8.28787L15.7885 4.0767C15.1974 3.48412 14.6725 3.41943 13.9476 3.41943Z" fill="#01579B"/>
<path opacity="0.2" d="M4.21111 16.0519C3.6847 15.5241 3.55384 15.0036 3.55384 14.0787V3.55225L3.42298 3.42139V14.0787C3.42142 15.0035 3.42142 15.2594 4.21111 16.0519V16.0519Z" fill="white"/>
<path opacity="0.2" d="M19.8691 8.15771V16.3153H16.3167L16.4476 16.4476H20V8.28857L19.8691 8.15771Z" fill="#263238"/>
<path opacity="0.2" d="M15.7901 4.07865C15.1373 3.42576 14.6036 3.42139 13.8169 3.42139H3.42285L3.55371 3.55225H13.8169C14.2095 3.55225 15.2005 3.48607 15.7901 4.07865Z" fill="white"/>
<path opacity="0.2" d="M19.8694 8.15766L15.7906 4.07875L12.369 0.657344C12.0706 0.357266 11.4485 0 10.9221 0C10.4693 0 10.0252 0.0911719 9.73852 0.263203L3.42329 3.42156L0.264929 10C0.151648 10.2397 0.00164795 10.6558 0.00164795 10.9205C0.00164795 11.4954 0.254617 12.082 0.658992 12.4996L3.81141 15.6301C3.88641 15.7227 3.97469 15.8168 4.07907 15.9212L4.20993 16.052L4.60399 16.4461L8.02555 19.8677L8.15641 19.9985H16.4448V16.4462H19.9972V8.28844L19.8693 8.15758L19.8694 8.15766Z" fill="url(#paint0_radial_170_1163)"/>
</g>
<defs>
<radialGradient id="paint0_radial_170_1163" cx="0" cy="0" r="1" gradientUnits="userSpaceOnUse" gradientTransform="translate(999.779 999.816) scale(999.857 999.856)">
<stop stop-color="white" stop-opacity="0.1"/>
<stop offset="1" stop-color="white" stop-opacity="0"/>
</radialGradient>
<clipPath id="clip0_170_1163">
<rect width="20" height="20" fill="white"/>
</clipPath>
</defs>
</svg>
