<svg width="20" height="20" viewBox="0 0 20 20" fill="none" xmlns="http://www.w3.org/2000/svg">
<path d="M6.6906 15.4603C6.6906 15.4603 5.77513 15.9039 7.34214 16.0541C9.24057 16.2345 10.2108 16.2087 12.3029 15.8787C12.3029 15.8787 12.8529 16.1661 13.621 16.415C8.9312 18.09 3.00695 16.318 6.6906 15.4603ZM6.11752 13.2745C6.11752 13.2745 5.09072 13.9079 6.6589 14.0431C8.68683 14.2174 10.2883 14.2317 13.0596 13.787C13.0596 13.787 13.4429 14.1108 14.0456 14.2879C8.37525 15.6697 2.05957 14.3969 6.11752 13.2745Z" fill="#5382A1"/>
<path d="M10.9486 9.56635C12.1042 10.675 10.645 11.6727 10.645 11.6727C10.645 11.6727 13.5792 10.4105 12.2316 8.82976C10.9731 7.35577 10.0079 6.62329 15.2329 4.09809C15.2329 4.09809 7.03139 5.80508 10.9486 9.56635Z" fill="#E76F00"/>
<path d="M17.1513 17.0769C17.1513 17.0769 17.8287 17.542 16.4051 17.9019C13.6981 18.5853 5.13814 18.7917 2.7602 17.9291C1.90542 17.6193 3.50843 17.1892 4.01264 17.099C4.53849 17.0039 4.83904 17.0217 4.83904 17.0217C3.88841 16.4636 -1.30544 18.1175 2.20085 18.591C11.7629 19.8833 19.6315 18.0092 17.1513 17.0769ZM7.13063 11.0097C7.13063 11.0097 2.77657 11.8716 5.5888 12.1845C6.77618 12.3169 9.14323 12.287 11.3481 12.133C13.15 12.0064 14.9594 11.7371 14.9594 11.7371C14.9594 11.7371 14.324 11.9638 13.8644 12.2254C9.44281 13.1945 0.90117 12.7436 3.3602 11.7524C5.43981 10.9147 7.13063 11.0097 7.13063 11.0097ZM14.9414 14.648C19.4362 12.7016 17.358 10.8312 15.9075 11.0832C15.5519 11.1449 15.3934 11.1983 15.3934 11.1983C15.3934 11.1983 15.5254 11.026 15.7775 10.9514C18.6471 10.1107 20.854 13.431 14.8511 14.7461C14.8511 14.7461 14.9207 14.6943 14.9414 14.648Z" fill="#5382A1"/>
<path d="M12.2312 0.0209961C12.2312 0.0209961 14.7205 2.09614 9.8703 5.28695C5.98098 7.8466 8.98341 9.30602 9.86871 10.9735C7.59842 9.26655 5.93229 7.76389 7.05009 6.36539C8.69063 4.31238 13.2356 3.31712 12.2312 0.0209961Z" fill="#E76F00"/>
<path d="M7.57253 19.9228C11.8869 20.1529 18.5121 19.7951 18.669 18.0939C18.669 18.0939 18.3674 18.7388 15.1034 19.251C11.421 19.8284 6.8793 19.761 4.18555 19.3909C4.18555 19.3909 4.73692 19.7713 7.57253 19.9228Z" fill="#5382A1"/>
</svg>
