<svg width="20" height="20" viewBox="0 0 20 20" fill="none" xmlns="http://www.w3.org/2000/svg">
<g clip-path="url(#clip0_170_1155)">
<path d="M9.9154 0.00488281C4.8504 0.00488281 5.16665 2.20998 5.16665 2.20998L5.17227 4.49453H10.0057V5.18041H3.25251C3.25251 5.18041 0.0114136 4.81139 0.0114136 9.94198C0.0114136 15.0727 2.84032 14.8908 2.84032 14.8908H4.5286V12.5099C4.5286 12.5099 4.43759 9.6699 7.31235 9.6699H12.1063C12.1063 9.6699 14.7996 9.71359 14.7996 7.05665V2.66355C14.7996 2.66355 15.2087 0.00488281 9.9154 0.00488281ZM7.25024 1.5412C7.36446 1.54109 7.47758 1.5636 7.58312 1.60744C7.68866 1.65127 7.78456 1.71556 7.86532 1.79664C7.94609 1.87773 8.01013 1.974 8.05379 2.07996C8.09746 2.18591 8.11988 2.29947 8.11977 2.41414C8.11988 2.5288 8.09746 2.64236 8.05379 2.74832C8.01013 2.85428 7.94609 2.95055 7.86532 3.03163C7.78456 3.11271 7.68866 3.17701 7.58312 3.22084C7.47758 3.26467 7.36446 3.28718 7.25024 3.28708C7.13602 3.28718 7.02291 3.26467 6.91737 3.22084C6.81182 3.17701 6.71593 3.11271 6.63516 3.03163C6.5544 2.95055 6.49035 2.85428 6.44669 2.74832C6.40303 2.64236 6.38061 2.5288 6.38071 2.41414C6.38061 2.29947 6.40303 2.18591 6.44669 2.07996C6.49035 1.974 6.5544 1.87773 6.63516 1.79664C6.71593 1.71556 6.81182 1.65127 6.91737 1.60744C7.02291 1.5636 7.13602 1.54109 7.25024 1.5412Z" fill="url(#paint0_linear_170_1155)"/>
<path d="M10.0593 19.9321C15.1243 19.9321 14.808 17.727 14.808 17.727L14.8024 15.4425H9.9689V14.7566H16.7221C16.7221 14.7566 19.9632 15.1257 19.9632 9.99491C19.9632 4.86425 17.1343 5.04621 17.1343 5.04621H15.446V7.42699C15.446 7.42699 15.537 10.267 12.6623 10.267H7.86835C7.86835 10.267 5.17499 10.2233 5.17499 12.8803V17.2735C5.17499 17.2735 4.76601 19.9321 10.0592 19.9321H10.0593ZM12.7244 18.3959C12.6102 18.396 12.4971 18.3735 12.3916 18.3297C12.286 18.2859 12.1901 18.2216 12.1094 18.1405C12.0286 18.0594 11.9646 17.9631 11.9209 17.8572C11.8772 17.7512 11.8548 17.6377 11.8549 17.523C11.8548 17.4083 11.8772 17.2948 11.9209 17.1888C11.9645 17.0828 12.0286 16.9865 12.1093 16.9054C12.1901 16.8244 12.286 16.7601 12.3915 16.7162C12.4971 16.6724 12.6102 16.6499 12.7244 16.65C12.8387 16.6499 12.9518 16.6724 13.0573 16.7162C13.1629 16.76 13.2588 16.8243 13.3395 16.9054C13.4203 16.9865 13.4843 17.0828 13.528 17.1887C13.5717 17.2947 13.5941 17.4082 13.594 17.5229C13.5941 17.6376 13.5717 17.7511 13.528 17.8571C13.4843 17.9631 13.4203 18.0593 13.3395 18.1404C13.2588 18.2215 13.1629 18.2858 13.0573 18.3296C12.9518 18.3734 12.8387 18.396 12.7244 18.3959Z" fill="url(#paint1_linear_170_1155)"/>
</g>
<defs>
<linearGradient id="paint0_linear_170_1155" x1="191.747" y1="179.226" x2="1184.32" y2="1158.06" gradientUnits="userSpaceOnUse">
<stop stop-color="#387EB8"/>
<stop offset="1" stop-color="#366994"/>
</linearGradient>
<linearGradient id="paint1_linear_170_1155" x1="288.177" y1="311.398" x2="1353.9" y2="1314.92" gradientUnits="userSpaceOnUse">
<stop stop-color="#FFE052"/>
<stop offset="1" stop-color="#FFC331"/>
</linearGradient>
<clipPath id="clip0_170_1155">
<rect width="20" height="20" fill="white"/>
</clipPath>
</defs>
</svg>
