<svg width="21" height="20" viewBox="0 0 21 20" fill="none" xmlns="http://www.w3.org/2000/svg">
<path d="M15.4905 13.1589L4.07715 19.9361L18.8553 18.9332L19.9935 4.03174L15.4904 13.1588L15.4905 13.1589Z" fill="url(#paint0_linear_170_1162)"/>
<path d="M18.8788 18.9216L17.6086 10.1548L14.1487 14.7234L18.8788 18.9216Z" fill="url(#paint1_linear_170_1162)"/>
<path d="M18.8962 18.9223L9.59067 18.1919L4.12604 19.9163L18.8962 18.9223Z" fill="url(#paint2_linear_170_1162)"/>
<path d="M4.13856 19.9189L6.46326 12.3032L1.34766 13.3969L4.13848 19.9188L4.13856 19.9189Z" fill="url(#paint3_linear_170_1162)"/>
<path d="M14.1474 14.749L12.0084 6.37061L5.88702 12.1086L14.1474 14.7491V14.749Z" fill="url(#paint4_linear_170_1162)"/>
<path d="M19.5071 6.48866L13.7207 1.7627L12.1094 6.97195L19.5071 6.48866Z" fill="url(#paint5_linear_170_1162)"/>
<path d="M16.802 0.0774226L13.3988 1.95821L11.2516 0.0522461L16.802 0.0774226Z" fill="url(#paint6_linear_170_1162)"/>
<path d="M0.00323486 15.9516L1.42888 13.3515L0.275627 10.2539L0.00323486 15.9516Z" fill="url(#paint7_linear_170_1162)"/>
<path d="M0.198547 10.1553L1.35886 13.4465L6.40066 12.3154L12.1567 6.9658L13.7812 1.80604L11.2234 0L6.87478 1.62745C5.50466 2.9018 2.84608 5.42322 2.75023 5.47059C2.65533 5.51906 0.994626 8.65796 0.198547 10.1553Z" fill="white"/>
<path d="M4.27181 4.24345C7.24123 1.29929 11.0692 -0.440162 12.5382 1.04203C14.0065 2.52423 12.4495 6.12619 9.48005 9.06941C6.51064 12.0125 2.73009 13.8478 1.26201 12.3656C-0.207011 10.8845 1.3024 7.18666 4.27181 4.24345Z" fill="url(#paint8_linear_170_1162)"/>
<path d="M4.13898 19.9153L6.44549 12.2754L14.1055 14.7363C11.3359 17.3334 8.25553 19.5289 4.13898 19.9153Z" fill="url(#paint9_linear_170_1162)"/>
<path d="M12.1663 6.94988L14.1328 14.7391C16.4464 12.3065 18.5228 9.69129 19.5397 6.45654L12.1664 6.94988H12.1663Z" fill="url(#paint10_linear_170_1162)"/>
<path d="M19.5196 6.49652C20.3067 4.12146 20.4883 0.71417 16.7772 0.081543L13.7321 1.7635L19.5196 6.49652Z" fill="url(#paint11_linear_170_1162)"/>
<path d="M0.00323486 15.9173C0.112254 19.8372 2.94033 19.8956 4.14504 19.93L1.36229 13.4312L0.00323486 15.9173Z" fill="#9E1209"/>
<path d="M12.1777 6.96345C13.9555 8.05615 17.5385 10.2507 17.6111 10.291C17.7241 10.3545 19.1559 7.87654 19.4808 6.47607L12.1777 6.96345Z" fill="url(#paint12_radial_170_1162)"/>
<path d="M6.44208 12.2754L9.52545 18.2243C11.3487 17.2355 12.7764 16.0308 14.084 14.7403L6.44208 12.2754Z" fill="url(#paint13_radial_170_1162)"/>
<path d="M1.34995 13.4388L0.913086 18.641C1.7374 19.767 2.87152 19.8649 4.06101 19.7772C3.20038 17.6351 1.48109 13.3521 1.34995 13.4388Z" fill="url(#paint14_linear_170_1162)"/>
<path d="M13.7142 1.77718L19.8397 2.63679C19.5127 1.25154 18.5088 0.357576 16.7975 0.078125L13.7142 1.77718Z" fill="url(#paint15_linear_170_1162)"/>
<defs>
<linearGradient id="paint0_linear_170_1162" x1="1352.98" y1="1775.77" x2="931.745" y2="1030.93" gradientUnits="userSpaceOnUse">
<stop stop-color="#FB7655"/>
<stop offset="0.41" stop-color="#E42B1E"/>
<stop offset="0.99" stop-color="#990000"/>
<stop offset="1" stop-color="#990000"/>
</linearGradient>
<linearGradient id="paint1_linear_170_1162" x1="565.913" y1="543.971" x2="-26.242" y2="428.299" gradientUnits="userSpaceOnUse">
<stop stop-color="#871101"/>
<stop offset="0.99" stop-color="#911209"/>
<stop offset="1" stop-color="#911209"/>
</linearGradient>
<linearGradient id="paint2_linear_170_1162" x1="1123.32" y1="396.398" x2="1115.69" y2="20.8081" gradientUnits="userSpaceOnUse">
<stop stop-color="#871101"/>
<stop offset="0.99" stop-color="#911209"/>
<stop offset="1" stop-color="#911209"/>
</linearGradient>
<linearGradient id="paint3_linear_170_1162" x1="257.189" y1="67.3951" x2="433.254" y2="583.662" gradientUnits="userSpaceOnUse">
<stop stop-color="white"/>
<stop offset="0.23" stop-color="#E57252"/>
<stop offset="0.46" stop-color="#DE3B20"/>
<stop offset="0.99" stop-color="#A60003"/>
<stop offset="1" stop-color="#A60003"/>
</linearGradient>
<linearGradient id="paint4_linear_170_1162" x1="387.302" y1="143.343" x2="419.236" y2="702.13" gradientUnits="userSpaceOnUse">
<stop stop-color="white"/>
<stop offset="0.23" stop-color="#E4714E"/>
<stop offset="0.56" stop-color="#BE1A0D"/>
<stop offset="0.99" stop-color="#A80D00"/>
<stop offset="1" stop-color="#A80D00"/>
</linearGradient>
<linearGradient id="paint5_linear_170_1162" x1="285.566" y1="82.9958" x2="332.262" y2="488.825" gradientUnits="userSpaceOnUse">
<stop stop-color="white"/>
<stop offset="0.18" stop-color="#E46342"/>
<stop offset="0.4" stop-color="#C82410"/>
<stop offset="0.99" stop-color="#A80D00"/>
<stop offset="1" stop-color="#A80D00"/>
</linearGradient>
<linearGradient id="paint6_linear_170_1162" x1="86.7864" y1="111.257" x2="152.624" y2="-167.911" gradientUnits="userSpaceOnUse">
<stop stop-color="white"/>
<stop offset="0.54" stop-color="#C81F11"/>
<stop offset="0.99" stop-color="#BF0905"/>
<stop offset="1" stop-color="#BF0905"/>
</linearGradient>
<linearGradient id="paint7_linear_170_1162" x1="39.3853" y1="130.674" x2="211.559" y2="238.597" gradientUnits="userSpaceOnUse">
<stop stop-color="white"/>
<stop offset="0.31" stop-color="#DE4024"/>
<stop offset="0.99" stop-color="#BF190B"/>
<stop offset="1" stop-color="#BF190B"/>
</linearGradient>
<linearGradient id="paint8_linear_170_1162" x1="-255.68" y1="1515.24" x2="1291.53" y2="-80.2633" gradientUnits="userSpaceOnUse">
<stop stop-color="#BD0012"/>
<stop offset="0.07" stop-color="white"/>
<stop offset="0.17" stop-color="white"/>
<stop offset="0.27" stop-color="#C82F1C"/>
<stop offset="0.33" stop-color="#820C01"/>
<stop offset="0.46" stop-color="#A31601"/>
<stop offset="0.72" stop-color="#B31301"/>
<stop offset="0.99" stop-color="#E82609"/>
<stop offset="1" stop-color="#E82609"/>
</linearGradient>
<linearGradient id="paint9_linear_170_1162" x1="590.09" y1="510.436" x2="152.24" y2="326.533" gradientUnits="userSpaceOnUse">
<stop stop-color="#8C0C01"/>
<stop offset="0.54" stop-color="#990C00"/>
<stop offset="0.99" stop-color="#A80D0E"/>
<stop offset="1" stop-color="#A80D0E"/>
</linearGradient>
<linearGradient id="paint10_linear_170_1162" x1="597.018" y1="526.222" x2="146.002" y2="205.864" gradientUnits="userSpaceOnUse">
<stop stop-color="#7E110B"/>
<stop offset="0.99" stop-color="#9E0C00"/>
<stop offset="1" stop-color="#9E0C00"/>
</linearGradient>
<linearGradient id="paint11_linear_170_1162" x1="594.34" y1="475.573" x2="382.242" y2="260.265" gradientUnits="userSpaceOnUse">
<stop stop-color="#79130D"/>
<stop offset="0.99" stop-color="#9E120B"/>
<stop offset="1" stop-color="#9E120B"/>
</linearGradient>
<radialGradient id="paint12_radial_170_1162" cx="0" cy="0" r="1" gradientUnits="userSpaceOnUse" gradientTransform="translate(245.883 159.921) scale(508.096 265.498)">
<stop stop-color="#A80D00"/>
<stop offset="0.99" stop-color="#7E0E08"/>
<stop offset="1" stop-color="#7E0E08"/>
</radialGradient>
<radialGradient id="paint13_radial_170_1162" cx="0" cy="0" r="1" gradientUnits="userSpaceOnUse" gradientTransform="translate(109.982 255.346) scale(675.435 525.796)">
<stop stop-color="#A30C00"/>
<stop offset="0.99" stop-color="#800E08"/>
<stop offset="1" stop-color="#800E08"/>
</radialGradient>
<linearGradient id="paint14_linear_170_1162" x1="178.991" y1="660.782" x2="-201.283" y2="345.124" gradientUnits="userSpaceOnUse">
<stop stop-color="#8B2114"/>
<stop offset="0.43" stop-color="#9E100A"/>
<stop offset="0.99" stop-color="#B3100C"/>
<stop offset="1" stop-color="#B3100C"/>
</linearGradient>
<linearGradient id="paint15_linear_170_1162" x1="202.808" y1="91.1641" x2="310.741" y2="364.212" gradientUnits="userSpaceOnUse">
<stop stop-color="#B31000"/>
<stop offset="0.44" stop-color="#910F08"/>
<stop offset="0.99" stop-color="#791C12"/>
<stop offset="1" stop-color="#791C12"/>
</linearGradient>
</defs>
</svg>
