<svg width="20" height="20" viewBox="0 0 20 20" fill="none" xmlns="http://www.w3.org/2000/svg">
<g clip-path="url(#clip0_170_1161)">
<path d="M4.44453 0H15.5227C16.0617 0 16.5852 0.0859375 17.093 0.265625C17.8273 0.53125 18.4914 1 18.9914 1.60938C19.4992 2.21875 19.8352 2.96875 19.9523 3.75C19.9992 4.03906 20.007 4.32812 20.007 4.61719V15.4219C20.007 15.7656 19.9914 16.1172 19.9211 16.4531C19.7648 17.2266 19.3977 17.9531 18.8664 18.5391C18.343 19.125 17.6555 19.5625 16.9133 19.7969C16.4602 19.9375 15.9914 20 15.5148 20C15.3039 20 4.41328 20 4.24922 19.9922C3.45234 19.9531 2.66328 19.6953 1.99922 19.25C1.35078 18.8125 0.819532 18.2031 0.475782 17.5C0.178907 16.8984 0.0304697 16.2266 0.0304697 15.5547V4.44531C0.0148447 3.78125 0.15547 3.125 0.444532 2.53125C0.78047 1.82813 1.30391 1.21094 1.95234 0.773438C2.61641 0.320312 3.39766 0.0546875 4.19453 0.015625C4.27266 0 4.35859 0 4.44453 0Z" fill="url(#paint0_linear_170_1161)"/>
<path d="M16.875 16.3594C16.8047 16.25 16.7266 16.1406 16.6406 16.0391C16.4453 15.8047 16.2187 15.6016 15.9687 15.4297C15.6562 15.2188 15.2891 15.0859 14.9141 15.0703C14.6484 15.0547 14.3828 15.1016 14.1328 15.1953C13.8828 15.2813 13.6406 15.4063 13.4062 15.5313C13.1328 15.6719 12.8594 15.8125 12.5703 15.9297C12.2266 16.0703 11.8672 16.1797 11.5 16.2578C11.0391 16.3438 10.5703 16.375 10.1094 16.3672C9.27344 16.3516 8.4375 16.2266 7.64062 15.9922C6.9375 15.7813 6.26562 15.4922 5.63281 15.125C5.07812 14.8047 4.5625 14.4375 4.07812 14.0234C3.67969 13.6797 3.3125 13.3125 2.96875 12.9219C2.73437 12.6484 2.50781 12.3594 2.29687 12.0625C2.21094 11.9453 2.13281 11.8203 2.0625 11.6953L0 9.46875V4.42969C0 1.98438 1.97656 0 4.42187 0H8.36719L11.2891 2.96875C17.8828 7.45313 15.75 12.3984 15.75 12.3984C15.75 12.3984 17.625 14.5078 16.875 16.3594Z" fill="url(#paint1_linear_170_1161)"/>
<path d="M11.3044 2.96875C17.8981 7.45312 15.7653 12.3984 15.7653 12.3984C15.7653 12.3984 17.6403 14.5156 16.8825 16.3672C16.8825 16.3672 16.1091 15.0703 14.8122 15.0703C13.5622 15.0703 12.8278 16.3672 10.3122 16.3672C4.71063 16.3672 2.06219 11.6875 2.06219 11.6875C7.10907 15.0078 10.5544 12.6562 10.5544 12.6562C8.28095 11.3359 3.44501 5.02344 3.44501 5.02344C7.65594 8.60938 9.47626 9.55469 9.47626 9.55469C8.39032 8.65625 5.34344 4.26562 5.34344 4.26562C7.78094 6.73438 12.6247 10.1797 12.6247 10.1797C13.9997 6.36719 11.3044 2.96875 11.3044 2.96875Z" fill="white"/>
</g>
<defs>
<linearGradient id="paint0_linear_170_1161" x1="11.897" y1="-0.713672" x2="8.11828" y2="20.7161" gradientUnits="userSpaceOnUse">
<stop stop-color="#FAAE42"/>
<stop offset="1" stop-color="#EF3E31"/>
</linearGradient>
<linearGradient id="paint1_linear_170_1161" x1="10.2041" y1="0.323125" x2="7.43852" y2="16.0073" gradientUnits="userSpaceOnUse">
<stop stop-color="#E39F3A"/>
<stop offset="1" stop-color="#D33929"/>
</linearGradient>
<clipPath id="clip0_170_1161">
<rect width="20" height="20" fill="white"/>
</clipPath>
</defs>
</svg>
