<svg width="196" height="151" viewBox="0 0 196 151" fill="none" xmlns="http://www.w3.org/2000/svg">
<path d="M107.219 5.72118L105.973 5.49187C106.543 6.09236 106.939 6.89291 107.055 7.7163C107.063 7.77015 107.069 7.82341 107.074 7.87615L107.926 7.75638L107.82 7.27807C107.696 6.71793 107.491 6.19552 107.219 5.72118ZM100.337 4.45395C98.7675 6.62509 97.4452 9.02817 96.3698 11.664L100.234 11.113C99.4465 10.3999 98.9948 9.72197 98.8745 8.86601C98.7038 7.65126 99.1269 6.56334 100.038 5.64403C100.463 5.21517 100.9 4.8757 101.359 4.64224L100.337 4.45395ZM98.0187 5.49773C97.6827 6.09849 97.469 6.77354 97.4076 7.48646C97.9849 6.43587 98.6085 5.42808 99.2784 4.46316L98.0187 5.49773ZM108.617 8.4621C108.558 8.51093 108.485 8.54454 108.404 8.55599L107.036 8.74819C106.936 9.26764 106.693 9.76817 106.31 10.3253C105.573 11.398 104.634 12.1193 103.525 12.2752C102.714 12.3892 101.947 12.2286 101.233 11.8375L97.4364 12.3788L97.5074 19.8899L96.6423 19.9104L96.5623 12.5035L95.7586 12.6181C95.4341 12.6643 95.1797 12.3444 95.2977 12.0387C95.6809 11.0461 96.0975 10.0844 96.5476 9.15357L96.5387 8.21621C96.3837 5.20495 98.5545 2.57307 101.541 2.15328C104.839 1.68979 107.939 3.84098 108.658 7.09264L108.744 7.48093C108.886 7.43736 109.032 7.40491 109.18 7.38403C110.914 7.14032 112.517 8.53269 112.789 10.4624C113.054 12.3524 111.95 14.099 110.275 14.3991L111.33 19.1678C111.363 19.3169 111.314 19.4652 111.213 19.5654L110.624 19.5793C110.56 19.5216 110.512 19.4439 110.492 19.3532L109.331 14.1071C109.272 13.8374 109.479 13.5823 109.755 13.5853C109.853 13.5863 109.951 13.58 110.049 13.5662C111.286 13.3925 112.147 12.0665 111.939 10.5819C111.73 9.09727 110.536 8.06021 109.3 8.23396C109.067 8.26666 108.845 8.33994 108.639 8.45094C108.632 8.4549 108.625 8.45862 108.617 8.4621ZM102.434 9.27084C102.662 9.24886 102.891 9.21544 103.122 9.17056C103.692 9.0597 104.227 8.88782 104.727 8.65498C104.979 8.53765 105.146 8.29078 105.16 8.01324C105.182 7.59903 104.863 7.24577 104.449 7.2242C103.898 7.19552 103.338 7.23643 102.767 7.34731C102.197 7.45816 101.662 7.63004 101.162 7.86288C100.91 7.98021 100.744 8.22708 100.729 8.50462C100.716 8.76064 100.832 8.99338 101.021 9.1389C100.985 9.05171 100.962 8.95672 100.955 8.85656C100.922 8.38555 101.255 7.97857 101.698 7.94756C102.142 7.91656 102.528 8.27325 102.561 8.74427C102.574 8.93782 102.526 9.12056 102.434 9.27084ZM103.405 11.4253C104.239 11.3081 104.989 10.7317 105.603 9.8389C106.119 9.08936 106.303 8.53021 106.205 7.83575C106.111 7.16497 105.772 6.50184 105.293 6.02387C104.592 5.3235 103.597 5.00633 102.524 5.15702C101.879 5.24765 101.263 5.62784 100.648 6.24823C99.9152 6.98715 99.5934 7.81461 99.7244 8.74656C99.8135 9.38031 100.175 9.91097 100.856 10.5187C101.652 11.2277 102.498 11.5528 103.405 11.4253ZM103.286 10.0131C102.647 10.1372 102.017 10.1831 101.395 10.1508C100.508 10.1046 99.8257 9.34758 99.8719 8.45999C99.9029 7.86527 100.26 7.33626 100.8 7.08484C101.364 6.82213 101.965 6.62884 102.603 6.50478C103.242 6.3807 103.872 6.33471 104.494 6.36708C105.381 6.41329 106.063 7.17028 106.017 8.05787C105.986 8.65259 105.629 9.1816 105.089 9.43302C104.525 9.69573 103.924 9.88902 103.286 10.0131ZM99.8279 13.8068C99.6024 13.7337 99.4789 13.4917 99.552 13.2662C99.625 13.0408 99.867 12.9172 100.092 12.9903C100.586 13.1503 101.158 13.0516 101.826 12.6672C102.032 12.5491 102.294 12.6199 102.412 12.8254C102.53 13.0309 102.46 13.2932 102.254 13.4113C101.39 13.908 100.575 14.0488 99.8279 13.8068Z" fill="#0C0D0E"/>
<path fill-rule="evenodd" clip-rule="evenodd" d="M55.0936 33.114C54.0622 35.1697 53.1145 36.4748 52.2505 37.0291C51.1095 37.7611 48.6369 38.7841 45.7627 38.2135C45.1535 38.0926 44.3375 37.7819 43.3147 37.2816C42.5064 36.8861 41.7702 36.3724 41.1274 35.7629L40.7185 35.8405L59.3969 67.3814L117.648 73.4229L117.675 73.1661L153.601 76.1044L154.746 49.4365L123.423 19.3091L89.211 20.1191L68.539 46.5678L58.0239 32.5582L55.0936 33.114ZM131.304 59.871L134.034 70.1601L102.908 71.1662C101.942 71.1974 101.134 70.4402 101.103 69.475C101.091 69.0816 101.211 68.6954 101.445 68.379C101.787 67.9157 102.411 67.6858 103.317 67.6894L102.638 67.4584C101.572 67.0953 101.002 65.9366 101.365 64.8703C101.588 64.2161 102.127 63.7192 102.797 63.5502C103.807 63.2957 105.435 63.0829 107.679 62.9118L106.063 51.8104C105.93 50.8945 106.564 50.044 107.48 49.9107C107.994 49.836 108.513 50.0032 108.886 50.3635C109.592 51.0459 110.649 53.6013 112.057 58.0296H118.555C117.055 55.486 116.249 53.7221 116.135 52.7378C116.021 51.7453 116.733 50.848 117.726 50.7338C118.28 50.6699 118.833 50.8656 119.224 51.2642L127.452 59.6534L130.76 59.4791L129.356 53.0027C129.308 52.7841 129.437 52.5657 129.651 52.501L133.367 51.378L125.621 43.8259C125.451 43.6604 125.448 43.3887 125.613 43.219C125.778 43.0493 126.05 43.0459 126.22 43.2113L134.279 51.0678C134.288 51.0766 134.296 51.0856 134.304 51.0949L138.059 49.9602C138.286 49.8917 138.525 50.02 138.594 50.2469C138.662 50.4738 138.534 50.7132 138.307 50.7818L130.278 53.208L131.613 59.3653C131.662 59.5905 131.525 59.8127 131.304 59.871ZM89.3328 43.063L90.9421 56.67C90.9699 56.9054 90.8017 57.1188 90.5663 57.1466C90.331 57.1744 90.1176 57.0062 90.0898 56.7708L88.4805 43.1638C88.4526 42.9284 88.6209 42.715 88.8562 42.6872C89.0916 42.6594 89.305 42.8276 89.3328 43.063ZM119.226 30.5358C119.226 31.4055 119.295 32.4072 119.432 33.5408C119.831 36.8431 117.477 39.8437 114.175 40.2428C114.034 40.2598 113.893 40.2718 113.752 40.2788C110.889 40.4212 108.453 38.2158 108.31 35.3531C108.287 34.8725 108.33 34.391 108.438 33.9223C108.932 31.7934 109.311 30.1913 109.576 29.1159C109.591 29.0549 109.608 28.9955 109.628 28.9377C110.51 26.3606 113.315 24.9869 115.892 25.8695C117.887 26.5526 119.226 28.4276 119.226 30.5358ZM60.8836 14.4375L54.4159 15.6137L55.3629 24.5653L58.0165 20.3886L60.9446 23.8093L60.8836 14.4375Z" fill="#0166FF"/>
<path d="M112.801 49.8077C112.499 47.5475 112.367 45.1861 112.404 42.7235C112.056 42.6514 111.726 42.4831 111.455 42.2222C110.78 41.5702 110.302 41.0206 110.021 40.5734C109.633 39.9554 109.13 38.9187 108.513 37.4631C108.411 37.2243 108.41 36.9546 108.51 36.715L108.553 36.6102C108.652 36.3739 108.923 36.2621 109.159 36.3604C109.175 36.367 109.19 36.3744 109.205 36.3826L111.738 37.7814L112.67 36.9896C113.122 36.6061 113.799 36.6614 114.183 37.1131C114.231 37.1701 114.273 37.2321 114.309 37.298L114.869 38.3356L117.72 37.2645C117.986 37.1647 118.284 37.2848 118.406 37.5409L118.454 37.6421C118.561 37.8664 118.55 38.1291 118.425 38.3438C118.007 39.0594 117.574 39.6346 117.125 40.0692C116.699 40.4811 115.614 41.2705 113.87 42.4376C113.68 42.5646 113.475 42.654 113.263 42.7067C113.227 44.9897 113.339 47.1821 113.599 49.284L120.939 44.4671C121.088 44.3696 121.288 44.411 121.385 44.5596C121.458 44.6706 121.455 44.815 121.378 44.9231L116.01 52.4502C115.218 53.5605 113.938 54.2196 112.574 54.2196C111.242 54.2196 110.025 53.467 109.429 52.2755L106.233 45.8815C106.154 45.7225 106.218 45.5292 106.377 45.4497C106.486 45.3952 106.617 45.407 106.715 45.4803L112.625 49.9231L112.801 49.8077ZM107.54 62.2203C107.58 62.207 107.623 62.1994 107.668 62.1987L111.46 62.1324C111.697 62.1283 111.893 62.3171 111.897 62.554C111.901 62.791 111.712 62.9865 111.475 62.9906L107.683 63.0568C107.557 63.059 107.443 63.0071 107.363 62.9225C105.26 63.0898 103.725 63.2955 102.757 63.5395C102.087 63.7084 101.548 64.2053 101.325 64.8596C100.962 65.9258 101.532 67.0845 102.598 67.4477L102.957 67.5701C103.013 67.4092 103.163 67.2904 103.343 67.282L110.282 66.9589C110.518 66.9479 110.719 67.1309 110.73 67.3677C110.741 67.6044 110.558 67.8053 110.322 67.8163L103.383 68.1394C103.146 68.1504 102.945 67.9674 102.934 67.7306C102.934 67.7167 102.934 67.7029 102.934 67.6893C102.212 67.7394 101.702 67.9657 101.404 68.3682C101.17 68.6847 101.05 69.0708 101.063 69.4642C101.094 70.4295 101.902 71.1867 102.867 71.1555L133.975 70.1499L134.029 70.1663L123.873 110.101L123.892 110.09L121.537 117.645C121.466 117.871 121.592 118.111 121.819 118.182C122.045 118.253 122.285 118.126 122.356 117.9L124.988 109.461L130.253 106.437L131.057 107.751L145.84 97.6236C146.124 97.4291 146.51 97.631 146.512 97.975L146.825 150.2C146.827 150.504 146.519 150.714 146.236 150.601L145.279 150.217C143.27 149.412 141.811 147.636 141.412 145.509L140.391 140.069L132.053 150.173H67.2682L82.7542 108.112C82.8023 108.068 82.8412 108.013 82.866 107.948L92.9458 81.585C93.0305 81.3636 92.9196 81.1155 92.6982 81.0309C92.4769 80.9462 92.2288 81.0571 92.1441 81.2785L86.4243 96.2382L82.4651 95.4569L58.0196 150.173L51.8091 147.8L50.9026 150.318C50.8414 150.488 50.6798 150.602 50.4989 150.602H0.507671C0.206397 150.602 -0.00109535 150.3 0.107225 150.018L0.563524 148.834C1.36668 146.75 3.20907 145.243 5.41145 144.869L17.1087 142.885C15.3592 142.37 14.1469 141.851 13.4585 141.315C12.3541 140.456 12.4951 139.439 13.7669 138.632C14.9503 137.881 16.0922 137.884 17.0948 138.664C17.9144 139.302 18.6307 140.451 19.2633 142.115L23.3501 136.925L19.6665 135.517L68.4232 50.3772L107.533 62.1741L107.54 62.2203ZM174.437 150.408C174.493 150.322 174.518 150.217 174.502 150.108L168.309 109.645C168.308 109.636 168.306 109.628 168.305 109.62C168.833 109.554 169.341 109.31 169.734 108.892C170.311 108.275 170.741 107.809 171.025 107.494C171.457 107.012 172.178 106.238 173.186 105.173C173.521 104.819 173.586 104.289 173.346 103.866C173.308 103.798 173.262 103.736 173.211 103.681C173.718 102.578 173.897 101.313 173.651 100.03C173.435 98.9088 173.297 97.9143 173.236 97.0467C173.089 94.9437 171.622 93.1667 169.584 92.6244C166.952 91.9238 164.25 93.4897 163.549 96.1221C163.534 96.1811 163.521 96.2416 163.51 96.3035C163.321 97.3947 163.055 99.0193 162.711 101.177C162.635 101.653 162.625 102.136 162.683 102.614C162.715 102.885 162.768 103.149 162.84 103.404C162.768 103.488 162.71 103.587 162.673 103.699C162.522 104.147 162.619 104.641 162.927 104.999L166.224 108.82C166.278 108.883 166.336 108.944 166.397 109.001C166.712 109.295 167.085 109.487 167.477 109.578C167.457 109.639 167.45 109.706 167.461 109.775L173.653 150.238C173.662 150.296 173.682 150.349 173.711 150.396L159.727 150.173L153.597 76.1106L166.703 82.9132L166.046 74.134C165.775 74.0773 165.513 73.9617 165.281 73.7864C164.531 73.2217 163.989 72.7344 163.656 72.3247C163.265 71.8445 162.756 71.0753 162.128 70.0169C161.558 69.3028 161.154 68.4392 160.987 67.4753C160.898 66.962 160.881 66.4388 160.936 65.9208C161.167 63.7459 161.348 62.1079 161.479 61.0062C161.488 60.9312 161.5 60.8576 161.516 60.7852C162.126 57.8879 164.97 56.0343 167.868 56.6451C170.11 57.1178 171.804 58.9634 172.083 61.2378C172.187 62.0827 172.374 63.052 172.644 64.1447C173.142 66.1577 172.635 68.1838 171.443 69.6946C171.194 70.1872 170.928 70.6085 170.645 70.9586C170.273 71.4192 169.293 72.335 167.704 73.7059C167.467 73.9098 167.193 74.0476 166.906 74.1185L167.554 82.7855L175.653 75.5553L180.473 119.268L182.693 94.9621C182.589 94.9039 182.49 94.8354 182.396 94.7566C181.676 94.1534 181.161 93.6385 180.85 93.2119C180.485 92.7119 180.017 91.9171 179.445 90.8273C178.913 90.0843 178.555 89.2008 178.439 88.2294C178.376 87.7122 178.387 87.1888 178.469 86.6744C178.813 84.5146 179.08 82.8883 179.269 81.795C179.282 81.7206 179.298 81.6477 179.317 81.5762C180.078 78.7148 183.015 77.0126 185.877 77.7742C188.091 78.3637 189.686 80.2953 189.846 82.5813C189.905 83.4304 190.041 84.4081 190.254 85.5135C190.646 87.5498 190.034 89.5466 188.764 90.9929C188.49 91.4718 188.202 91.8787 187.901 92.2134C187.506 92.654 186.478 93.5172 184.82 94.803C184.531 95.0271 184.195 95.1579 183.851 95.1961L181.262 120.154L187.444 111.527L195.262 150.74L174.437 150.408ZM141.102 139.207L142.255 145.35C142.6 147.189 143.861 148.724 145.598 149.42L145.963 149.566L145.866 133.434L141.102 139.207ZM145.857 131.913L145.658 98.7885L131.506 108.483L145.857 131.913ZM51.0072 147.493L24.1899 137.246L20.0143 142.548H28.3085C28.5455 142.548 28.7376 142.74 28.7376 142.977C28.7376 143.214 28.5455 143.406 28.3085 143.406H21.9089C23.2091 143.763 24.1491 144.143 24.7369 144.553C25.8848 145.353 25.7972 146.376 24.5694 147.249C23.4269 148.061 22.2864 148.118 21.2443 147.391C20.2971 146.731 19.4442 145.432 18.6589 143.493L5.555 145.715C3.65124 146.038 2.05867 147.341 1.36442 149.143L1.13292 149.744H50.1972L51.0072 147.493ZM16.5678 139.342C15.8641 138.794 15.1164 138.792 14.2269 139.357C13.4258 139.865 13.3835 140.17 13.9855 140.638C14.6973 141.192 16.1896 141.774 18.4392 142.363C17.8644 140.868 17.2345 139.86 16.5678 139.342ZM21.7351 146.687C22.4665 147.197 23.2133 147.16 24.0721 146.55C24.8454 146 24.8717 145.693 24.2461 145.257C23.5062 144.742 21.9855 144.238 19.7081 143.768C20.3604 145.231 21.0422 146.204 21.7351 146.687ZM179.495 89.0482C179.561 89.0404 179.629 89.0467 179.697 89.0693C179.713 89.0747 179.729 89.0811 179.744 89.0882L182.368 90.307L183.243 89.452C183.667 89.0379 184.346 89.0459 184.76 89.4697C184.812 89.5233 184.859 89.5821 184.899 89.6454L185.53 90.6414L188.3 89.374C188.476 89.2933 188.675 89.314 188.827 89.4141C189.43 88.3132 189.667 87.0042 189.411 85.6757C189.192 84.5385 189.052 83.5272 188.99 82.6412C188.856 80.7211 187.516 79.0987 185.656 78.6036C183.253 77.9639 180.786 79.3936 180.146 81.797C180.134 81.8436 180.123 81.8916 180.115 81.9411C179.926 83.0301 179.66 84.6531 179.316 86.8096C179.247 87.2455 179.238 87.6889 179.291 88.1271C179.329 88.4462 179.398 88.7541 179.495 89.0482ZM162.084 68.2377C162.15 68.2264 162.219 68.2291 162.287 68.2482C162.304 68.2527 162.32 68.2582 162.336 68.2646L165.02 69.3443L165.849 68.4447C166.25 68.0091 166.929 67.9814 167.365 68.383C167.42 68.4337 167.469 68.4901 167.513 68.5511L168.195 69.5128L170.895 68.1021C171.067 68.0123 171.266 68.0226 171.424 68.1146C171.967 66.9837 172.136 65.6641 171.811 64.3508C171.533 63.2265 171.34 62.2241 171.231 61.3424C170.997 59.4321 169.574 57.882 167.691 57.485C165.257 56.9719 162.869 58.5288 162.355 60.9623C162.346 61.0095 162.338 61.058 162.332 61.1078C162.201 62.2052 162.02 63.8399 161.789 66.0115C161.743 66.4504 161.757 66.8936 161.833 67.3285C161.888 67.6451 161.973 67.949 162.084 68.2377ZM166.874 108.259L163.577 104.438C163.467 104.31 163.432 104.133 163.486 103.973C163.492 103.955 163.512 103.945 163.529 103.951C163.531 103.952 163.532 103.952 163.533 103.953L166.157 105.171C166.318 105.247 166.51 105.214 166.637 105.089L167.512 104.234C167.767 103.986 168.174 103.991 168.423 104.245C168.454 104.277 168.482 104.312 168.506 104.35L169.137 105.346C169.252 105.528 169.483 105.596 169.678 105.507L172.448 104.239C172.503 104.214 172.569 104.235 172.599 104.288C172.653 104.384 172.638 104.503 172.563 104.583C171.55 105.653 170.825 106.432 170.386 106.92C170.108 107.23 169.681 107.692 169.107 108.305C168.54 108.91 167.59 108.941 166.984 108.374C166.945 108.338 166.908 108.3 166.874 108.259ZM41.9648 17.8503C41.1808 16.4531 40.4681 15.5486 39.8456 15.1435C39.5733 14.9664 39.2483 14.841 38.8677 14.7688C38.6345 14.7245 38.3941 14.7383 38.1676 14.8089C37.4047 15.0466 36.9789 15.8578 37.2166 16.6207C37.2329 16.6728 37.2393 16.7233 37.2374 16.7713L40.1386 22.5649C40.2447 22.7769 40.159 23.0347 39.9471 23.1408C39.7351 23.2469 39.4773 23.1612 39.3712 22.9492L36.4064 17.0287C36.3889 16.9939 36.3767 16.9578 36.3693 16.9214C35.6017 16.1842 34.9834 15.7552 34.5414 15.6329C34.2777 15.5599 33.9971 15.5775 33.7446 15.683C33.1236 15.9423 32.8295 16.655 33.0862 17.2765L41.3204 35.6713C41.4172 35.8877 41.3203 36.1415 41.104 36.2384C40.8877 36.3352 40.6338 36.2383 40.537 36.022L32.3004 17.6219L32.2961 17.6119C31.8534 16.5519 32.3538 15.3337 33.4139 14.891C33.8438 14.7114 34.3215 14.6814 34.7704 14.8057C35.2257 14.9317 35.7442 15.2427 36.3372 15.7378C36.4979 14.9384 37.0788 14.2492 37.9122 13.9895C38.2732 13.877 38.6562 13.8551 39.0277 13.9255C39.5144 14.0179 39.9441 14.1837 40.3137 14.4241C41.0709 14.9169 41.8639 15.9157 42.712 17.4274C44.7436 16.3297 50.6527 13.3031 60.4395 8.34766L60.481 10.5217L60.447 10.5389L65.4565 13.5982L72.2543 12.358L73.5028 31.92L50.6313 33.5364L42.519 18.9791C42.1284 18.3839 41.9267 18.022 41.9138 17.8932C41.9132 17.8877 41.9302 17.8733 41.9648 17.8503ZM60.8298 14.4423L64.1886 13.8295L62.0584 12.5286C62.0332 12.5443 62.006 12.5576 61.9769 12.5681L56.5982 14.5075C56.3752 14.5879 56.1293 14.4723 56.0489 14.2493C55.9685 14.0264 56.0841 13.7804 56.307 13.7001L61.1294 11.9613L59.6423 11.0531C59.6117 11.0344 59.5843 11.0125 59.5602 10.9881L48.1896 16.7483L54.6981 15.5609L55.5135 24.3747L57.9702 20.2025L60.9403 23.5602L60.8298 14.4423Z" fill="#0C0D0E"/>
<path d="M49.9204 30.8031L51.3457 27.4453" stroke="#0C0D0E" stroke-width="0.858288" stroke-linecap="round" stroke-linejoin="round"/>
</svg>
