<svg width="188" height="159" viewBox="0 0 188 159" fill="none" xmlns="http://www.w3.org/2000/svg">
<path fill-rule="evenodd" clip-rule="evenodd" d="M94.5188 64.7304L91.0783 58.5803L76.8285 33.1081C76.6437 32.7777 76.6596 32.3717 76.8696 32.0567L82.2326 24.0144C82.4223 23.7299 82.7433 23.561 83.0853 23.5658L93.8138 23.7156L93.97 19.9412C93.9879 19.509 94.3435 19.168 94.776 19.1681L100.306 19.1702C100.408 19.1703 100.509 19.1688 100.611 19.1657L108.045 18.9437C108.457 18.9314 108.812 19.2316 108.868 19.6399L109.5 24.2396L126.515 29.1943L124.139 43.7804L135.671 41.4483L139.728 59.2782L95.8684 66.2762L106.929 78.9442L87.0225 119.246L68.1599 83.7654L54.0114 82.65L58.398 82.6105C58.5828 82.6089 58.7672 82.5931 58.9496 82.5634C60.9276 82.2407 62.2695 80.3757 61.9468 78.3977L60.7363 70.9766C60.5978 70.1279 60.3351 69.3112 59.9615 68.5506L68.8215 66.0774C69.0755 66.0065 69.1941 65.7149 69.0619 65.4868L63.1891 55.3564C63.0774 55.1637 62.8307 55.0981 62.638 55.2098C62.4454 55.3215 62.3798 55.5682 62.4914 55.7608L68.1031 65.4407L59.561 67.8251C59.1074 67.0889 58.5429 66.4193 57.8819 65.8421L51.8708 60.5939C51.6985 60.4435 51.4979 60.3291 51.2807 60.2574C50.3819 59.9609 49.413 60.4491 49.1165 61.3479C48.9449 61.8679 48.8827 62.4188 48.9298 63.0004C48.9897 63.7394 49.6917 64.5383 50.2296 65.33C50.5447 65.7937 51.0233 66.5091 51.6655 67.4762L46.2415 68.1359C44.7357 68.5688 43.9892 69.3507 44.0021 70.4816C44.0143 71.5485 44.593 72.3963 45.7381 73.0249C44.5808 73.4706 43.9852 74.233 43.9513 75.3121C43.915 76.4691 44.499 77.2406 45.7033 77.6264C44.5906 78.224 44.0235 79.0975 44.0021 80.2468C43.9985 80.4429 44.0089 80.6296 44.0335 80.8069C44.092 81.229 44.2669 81.6094 44.5228 81.9178H28.8971L18.5215 63.8543L18.5247 63.7154C19.8574 63.8064 21.2024 63.5737 22.441 63.024C23.4188 62.59 24.1352 62.1903 24.5901 61.8249C26.7366 60.1008 27.4936 57.7034 27.6558 56.4401C27.691 56.1664 27.686 55.8506 27.641 55.4927L43.3918 60.1777L42.7786 62.8271C42.7284 63.044 42.8635 63.2606 43.0805 63.3108C43.2974 63.361 43.514 63.2259 43.5642 63.0089L44.2817 59.9093L45.2621 59.1376C46.2287 59.5134 47.3754 59.58 48.5115 59.2563C48.7256 59.1952 48.8498 58.9722 48.7887 58.758C48.7277 58.5438 48.5046 58.4197 48.2905 58.4807C47.5057 58.7043 46.7225 58.7089 46.0265 58.5359L60.0193 47.5224L59.625 47.6567C58.7424 47.9572 57.7657 47.7146 57.1263 47.036L56.7053 46.5893C56.6817 46.5642 56.6597 46.5377 56.6395 46.5099C56.3779 46.1494 56.4581 45.6452 56.8185 45.3836L69.8977 35.892C69.9468 35.8563 69.9997 35.8264 70.0555 35.8026C70.4653 35.6282 70.9389 35.819 71.1133 36.2287L72.3124 39.0454C72.3491 39.1316 72.3826 39.2191 72.4128 39.3078C72.4333 39.3679 72.4521 39.4281 72.4694 39.4885L72.4759 39.4837L94.5188 64.7304ZM156.844 40.5828L164.983 20.4473C165.264 19.7503 165.973 19.3235 166.721 19.4005C166.804 19.409 166.886 19.4282 166.964 19.4576C167.471 19.6474 167.728 20.2122 167.538 20.7191C166.349 23.8958 165.515 26.1093 165.038 27.3594C162.501 33.9993 160.366 39.4581 158.733 43.6955C158.426 44.4916 158.094 45.3509 157.737 46.2736L162.629 77.4432C162.636 77.4886 162.641 77.5344 162.644 77.5802C162.7 78.4217 162.062 79.1486 161.22 79.2037C160.28 79.2652 159.451 78.5909 159.32 77.6576L155.665 51.6283C153.784 56.4838 151.455 62.4839 148.676 69.6289C148.66 69.6705 148.642 69.7113 148.623 69.7514C148.248 70.5099 147.33 70.8215 146.572 70.4473C145.726 70.0304 145.346 69.0321 145.699 68.1582L154.818 45.5954L152.165 26.6967C152.06 25.9523 152.461 25.2284 153.147 24.9212C153.225 24.886 153.308 24.8615 153.393 24.8481C153.922 24.7651 154.419 25.1268 154.502 25.6562L156.844 40.5828ZM101.767 23.6658C101.655 23.4732 101.409 23.4076 101.216 23.5193C101.023 23.631 100.958 23.8778 101.07 24.0704L113.821 46.0552C113.908 46.2048 114.08 46.2824 114.25 46.2481L123.609 44.3555C123.827 44.3113 123.969 44.0986 123.924 43.8804C123.88 43.6621 123.668 43.5209 123.449 43.5651L114.373 45.4004L101.767 23.6658ZM68.2091 83.2786H81.3028C81.5255 83.2786 81.706 83.0981 81.706 82.8754C81.706 82.6527 81.5255 82.4722 81.3028 82.4722H68.2091C67.9864 82.4722 67.8059 82.6527 67.8059 82.8754C67.8059 83.0981 67.9864 83.2786 68.2091 83.2786Z" fill="#0166FF"/>
<path fill-rule="evenodd" clip-rule="evenodd" d="M123.735 99.1561L123.851 86.6161C123.853 86.3934 123.674 86.2112 123.451 86.2092C123.229 86.2071 123.046 86.386 123.044 86.6086L122.925 99.4986C122.924 99.5778 122.946 99.6518 122.985 99.7145L122.05 143.553C122.03 144.476 121.59 145.34 120.854 145.898L117.924 148.119L118.522 151.469L131.064 153.597C131.382 153.651 131.691 153.73 131.99 153.832L131.102 106.092L123.735 99.1561ZM29.0384 81.926C28.948 81.7246 28.8977 81.5013 28.8977 81.2662V80.5606C28.8977 79.6699 29.6198 78.9478 30.5105 78.9478H41.1234C41.6466 77.5646 42.113 76.2743 42.5229 75.077L32.6535 74.0499C31.9979 73.9817 31.5217 73.3948 31.5899 72.7392C31.5916 72.7233 31.5935 72.7075 31.5958 72.6917C31.6953 72.0047 32.3193 71.5188 33.0097 71.5906L43.3115 72.6628C43.5697 71.8274 43.793 71.0493 43.9814 70.3283C43.9776 70.388 43.9761 70.4487 43.9768 70.5104C43.9864 71.354 44.3502 72.0605 45.068 72.6301C45.1169 72.609 45.1707 72.5974 45.2273 72.5974H51.4769C51.6996 72.5974 51.8801 72.7779 51.8801 73.0006C51.8801 73.2233 51.6996 73.4038 51.4769 73.4038H45.2273C45.1704 73.4038 45.1162 73.392 45.0671 73.3707C44.3332 73.8281 43.9528 74.4849 43.926 75.3409C43.8986 76.214 44.2243 76.8676 44.9034 77.3015C44.9673 77.259 45.044 77.2342 45.1265 77.2342H51.3761C51.5988 77.2342 51.7793 77.4147 51.7793 77.6374C51.7793 77.8601 51.5988 78.0406 51.3761 78.0406H45.1265C45.1129 78.0406 45.0995 78.0399 45.0863 78.0386C44.3638 78.606 43.994 79.3517 43.9768 80.2757C43.9731 80.4717 43.9836 80.6584 44.0082 80.8358C44.0651 81.2464 44.2321 81.6176 44.4768 81.9214H29.0993C29.0786 81.9214 29.0583 81.923 29.0384 81.926ZM45.7813 52.4821C46.1076 52.3876 46.4621 52.3366 46.8401 52.3366C48.8287 52.3366 50.1665 53.7488 50.1665 55.4699C50.1665 56.8588 49.618 58.0638 48.3613 58.4772C47.3315 58.7604 46.3365 58.7733 45.4751 58.3969C44.6304 58.0278 43.9822 57.2126 43.7438 56.3862C43.2782 54.7727 44.1018 53.1713 45.7813 52.4821ZM48.7964 59.0111C49.2219 59.413 49.6041 59.8711 49.9432 60.3854C49.5535 60.5831 49.2388 60.929 49.0911 61.3767C48.9196 61.8968 48.8573 62.4476 48.9045 63.0293C48.9644 63.7682 49.6664 64.5671 50.2043 65.3588C50.5193 65.8225 50.998 66.5379 51.6402 67.5051L46.2162 68.1648C45.1567 68.4693 44.4731 68.9466 44.1655 69.5967C44.8687 66.6794 44.9326 64.8111 44.3571 63.9917C44.1142 63.6457 43.8338 63.3562 43.5162 63.1232C43.5348 63.0893 43.549 63.0518 43.5578 63.0115L44.5082 58.6522C45.6012 59.3683 47.092 59.6046 48.5651 59.1849C48.665 59.1564 48.7453 59.0927 48.7964 59.0111ZM43.1549 63.3222L42.0395 67.9916C41.8326 68.8579 40.9625 69.3925 40.0962 69.1855C40.0889 69.1838 40.0817 69.182 40.0745 69.1802L34.7601 67.8329C33.8967 67.614 33.3742 66.7366 33.5931 65.8732C33.6114 65.801 33.6347 65.7301 33.6628 65.661L39.6995 50.8438C39.9613 50.2013 40.5971 49.8097 41.2677 49.8411C41.2711 49.7273 41.2866 49.6121 41.3153 49.4972L42.3538 45.3317C42.5693 44.4675 43.4446 43.9415 44.3089 44.157L45.0914 44.3521C45.9556 44.5676 46.4816 45.4429 46.2661 46.3072L45.2275 50.4726C45.1926 50.6127 45.1403 50.7438 45.0736 50.8644C45.3554 51.0595 45.566 51.3391 45.678 51.6579C43.4939 52.4477 42.3671 54.5241 42.969 56.6098C43.1361 57.1889 43.4416 57.6944 43.847 58.1098L42.818 62.8297C42.7707 63.0466 42.898 63.2631 43.1022 63.3133C43.1198 63.3176 43.1374 63.3206 43.1549 63.3222ZM50.4204 60.3391C50.3987 60.1175 50.5607 59.9202 50.7823 59.8985C51.004 59.8768 51.2012 60.0388 51.223 60.2604C51.4275 62.346 52.2591 63.0974 53.8561 62.7301C54.0731 62.6802 54.2895 62.8157 54.3394 63.0327C54.3893 63.2497 54.2539 63.4661 54.0369 63.516C51.9204 64.0027 50.6688 62.8719 50.4204 60.3391ZM11.4613 42.147L9.6195 51.895L12.6838 52.8907C12.8956 52.9595 13.0115 53.1869 12.9426 53.3987C12.8738 53.6105 12.6464 53.7264 12.4346 53.6576L9.1223 52.5814C9.10098 52.5796 9.07952 52.5761 9.05806 52.5707C6.83714 52.0181 5.27647 51.8841 4.41115 52.1478C4.11921 52.2367 3.83274 52.3949 3.55086 52.6253C3.37822 52.7664 3.24294 52.9477 3.15692 53.1534C2.86727 53.8461 3.19396 54.6424 3.88661 54.932C3.93393 54.9518 3.97417 54.9777 4.00759 55.008L9.92957 56.4189C10.1462 56.4705 10.28 56.6879 10.2283 56.9045C10.1767 57.1211 9.9593 57.2549 9.74269 57.2033L3.69096 55.7616C3.65535 55.7531 3.62198 55.7401 3.5913 55.7234C2.59714 55.8307 1.91503 56.0167 1.56004 56.2609C1.34823 56.4066 1.19147 56.6192 1.11488 56.8646C0.926008 57.4698 1.26349 58.1134 1.86866 58.3023L18.5881 63.3156C18.8014 63.3795 18.9225 63.6043 18.8585 63.8176C18.7945 64.0309 18.5698 64.152 18.3565 64.088L1.63273 59.0734C0.598107 58.7506 0.0235436 57.6547 0.345095 56.6243C0.475495 56.2065 0.742386 55.8446 1.103 55.5965C1.46865 55.3449 2.00557 55.1596 2.7201 55.0318C2.24178 54.4333 2.09653 53.599 2.41295 52.8423C2.54999 52.5146 2.76553 52.2256 3.04058 52.0009C3.40101 51.7063 3.7798 51.4972 4.17609 51.3764C5.15708 51.0775 6.70131 51.1871 8.83796 51.6879L10.6765 41.9572C10.7403 41.6195 10.8875 41.3186 11.0928 41.0718C11.0005 40.6635 10.9553 40.2375 10.9553 39.782C10.9553 38.1989 11.5148 36.5769 12.4624 35.321C13.316 34.1894 14.477 33.3467 15.8331 32.87L16.0962 22.7558C16.0968 22.7324 16.0994 22.7096 16.1037 22.6876C16.0757 22.5457 16.1253 22.3934 16.2456 22.296C17.5516 21.2385 19.0117 21.2385 20.52 22.2773C20.6286 22.3521 20.6891 22.4706 20.6942 22.593C20.7163 22.6396 20.7299 22.6916 20.7325 22.7476L21.2068 32.973L21.3039 33.1095C21.9253 33.4083 22.5358 33.7945 23.1488 34.2611C25.0403 35.7009 26.0753 37.5504 26.0753 39.782C26.0753 41.3698 25.405 42.7303 24.0925 44.2804C23.8222 44.5995 23.5425 44.8944 23.2535 45.1637C23.2796 45.2051 23.3044 45.2475 23.3279 45.2909C26.3526 50.8863 27.9128 54.2613 28.044 55.5432C28.0667 55.7647 27.9055 55.9627 27.684 55.9854C27.4625 56.0081 27.2645 55.8469 27.2418 55.6254C27.1268 54.5019 25.5774 51.1493 22.6291 45.694C21.8249 46.3131 20.954 46.7454 20.0157 46.9675C20.0296 47.9201 20.2192 49.3234 20.5887 51.1595L22.123 54.1708C22.2241 54.3692 22.1452 54.612 21.9468 54.7131C21.7484 54.8142 21.5056 54.7353 21.4045 54.5369L19.9661 51.7137L14.3718 49.3879C14.2197 49.3247 14.1213 49.1752 14.1235 49.0104C14.1418 47.6007 14.1315 46.3852 14.0944 45.3688C13.708 45.0475 13.3332 44.6873 12.9712 44.2922C12.2922 43.551 11.7931 42.8609 11.4613 42.147ZM19.2129 47.104C18.9841 47.1282 18.7515 47.1404 18.5153 47.1404C17.2531 47.1404 16.0452 46.7255 14.9206 45.9839C14.94 46.8009 14.944 47.7216 14.933 48.7479L19.6814 50.7221C19.3945 49.2108 19.2375 48.0082 19.2129 47.104ZM21.8444 57.8266C19.2568 56.21 16.5401 56.6225 13.6034 59.1155C13.4337 59.2596 13.1792 59.2388 13.0351 59.069C12.891 58.8992 12.9118 58.6448 13.0816 58.5007C16.2689 55.795 19.3626 55.3253 22.2717 57.1427C22.4605 57.2607 22.518 57.5094 22.4 57.6983C22.282 57.8871 22.0333 57.9446 21.8444 57.8266ZM25.2553 39.3704C25.1366 37.5909 24.2417 36.1064 22.6604 34.9027C22.0585 34.4446 21.4644 34.0728 20.8662 33.7945C20.8028 33.7651 20.7482 33.7196 20.7077 33.6626L20.4809 33.3437C20.4361 33.2807 20.4103 33.206 20.4067 33.1287L19.9533 23.3545C19.3551 23.579 18.8644 23.6927 18.4723 23.6927C18.0746 23.6927 17.5502 23.5752 16.8876 23.3426L16.6332 33.1205C16.6308 33.2155 16.5949 33.3064 16.5319 33.3775L16.4663 33.4515C16.4182 33.5057 16.3564 33.546 16.2873 33.5681C14.9993 33.9793 13.9023 34.7513 13.1061 35.8066C12.5034 36.6054 12.0757 37.5748 11.8805 38.5757C11.8923 38.5755 11.904 38.5752 11.9157 38.5749C11.8738 38.8338 11.8657 39.1623 11.8657 39.7492V39.782C11.8657 41.1516 12.7484 42.7698 13.9645 44.0432C15.3161 45.4584 16.8829 46.3176 18.5678 46.3337C20.455 46.3171 22.0829 45.4057 23.4771 43.7592C23.6734 43.5274 23.8534 43.3014 24.0172 43.0796C24.3317 42.5985 24.617 42.0636 24.8304 41.5202C25.1191 40.7847 25.2692 40.0624 25.2553 39.3704ZM17.2205 22.6044C17.7696 22.793 18.1901 22.8863 18.4723 22.8863C18.7351 22.8863 19.1005 22.8047 19.5618 22.6391C18.7229 22.2069 17.955 22.1976 17.2205 22.6044ZM24.2177 38.2423C24.5781 39.1246 24.5056 40.141 24.0798 41.2255C23.7469 42.0733 23.212 42.9096 22.6927 43.4979C21.5357 44.8085 20.185 45.5276 18.6161 45.5276C17.1657 45.5276 15.7736 44.7699 14.5477 43.4863C13.4611 42.3485 12.6721 40.9021 12.6721 39.782V39.7492C12.6721 39.0523 12.6837 38.7815 12.7457 38.5567C14.9193 38.5102 16.5319 38.4869 17.5833 38.4869C18.0203 38.4869 18.6286 38.4743 19.408 38.4489C19.3523 38.5821 19.3217 38.7275 19.3217 38.8798C19.3217 39.52 19.8633 40.039 20.5313 40.039C21.1993 40.039 21.7409 39.52 21.7409 38.8798C21.7409 38.6943 21.6954 38.519 21.6146 38.3635C22.3897 38.33 23.2574 38.2896 24.2177 38.2423ZM55.0903 40.8103C55.7382 40.4559 55.928 40.2757 56.0894 39.9849C56.0852 39.9926 56.1341 39.904 56.149 39.8776C56.2584 39.6837 56.5044 39.6153 56.6983 39.7248C56.8922 39.8342 56.9607 40.0802 56.8512 40.2741C56.8386 40.2964 56.7919 40.381 56.7944 40.3765C56.5608 40.7972 56.274 41.0726 55.5432 41.4809L57.7383 44.731L57.0853 45.2049L54.1769 40.8987L51.6022 42.5707C51.3573 42.7298 51.0297 42.5836 50.9843 42.2951L50.4096 38.6351C50.3283 38.538 50.2513 38.4334 50.178 38.3206C49.7345 37.6375 49.5224 36.7841 49.5796 35.9776C49.6286 35.286 49.8697 34.6353 50.2728 34.0762C50.6925 32.2915 51.7375 30.6883 53.2493 29.5841C52.4223 29.5485 51.6283 29.1186 51.1579 28.3679C51.1565 28.3657 51.1551 28.3635 51.1538 28.3613C50.601 27.473 50.6853 26.3685 51.2823 25.5819C50.6374 25.5106 50.0317 25.1553 49.6621 24.5657C49.6608 24.5637 49.6596 24.5616 49.6583 24.5596C49.0538 23.5878 49.3515 22.3099 50.3233 21.7054L51.6774 20.863C52.4806 20.3634 53.5144 20.4391 54.2362 21.0503C55.0002 21.6973 55.2075 22.7575 54.8078 23.6243C55.4198 23.6116 56.0321 23.8165 56.5233 24.2303C57.5086 25.0604 57.7165 26.471 57.0679 27.5389C58.4742 27.114 60.0322 27.579 60.9692 28.7714L67.7822 37.4421L67.1291 37.9161L62.5048 32.0309C61.6974 31.6805 60.7396 31.7265 59.9512 32.2385C59.1053 32.7878 58.6701 33.7333 58.7278 34.6794C58.0568 34.7459 57.4662 34.725 56.9561 34.6169C56.9557 34.6168 56.9552 34.6167 56.9548 34.6166C57.1709 35.1808 57.1997 35.8146 57.1007 36.5891C56.946 37.7999 56.4325 38.766 55.4915 39.3771C54.6086 39.9505 53.4987 40.0174 52.3143 39.7114C51.9441 39.6158 51.6226 39.5033 51.34 39.362L51.6845 41.5557L54.0698 40.0067C54.2542 39.887 54.5005 39.937 54.6235 40.1192L55.0903 40.8103ZM53.0078 36.9632C52.9762 37.1652 52.959 37.3759 52.9561 37.5955C53.924 37.4811 54.688 37.1032 55.2658 36.4615C55.8409 35.8228 56.1368 35.0279 56.152 34.0597C56.1487 34.0555 56.1454 34.0513 56.142 34.0472C55.179 34.163 54.4183 34.5405 53.8425 35.18C53.7301 35.3049 53.6283 35.4358 53.5371 35.5728C53.8193 35.5665 54.1051 35.7104 54.2774 35.9757C54.5351 36.3726 54.4413 36.8909 54.0678 37.1335C53.731 37.3522 53.2818 37.272 53.0078 36.9632ZM56.3102 36.4106C56.1811 36.618 56.0327 36.8149 55.8651 37.0011C55.0567 37.8989 53.9534 38.3765 52.5811 38.4334C52.3621 38.4425 52.1759 38.2749 52.1621 38.0561C52.0752 36.6853 52.4349 35.5382 53.2433 34.6404C53.6825 34.1525 54.2088 33.7888 54.8181 33.5491C54.5186 33.4298 54.1844 33.3574 53.8165 33.33C52.9981 33.2692 52.3263 33.3798 51.8132 33.7131C50.96 34.2671 50.4499 35.1055 50.384 36.0346C50.339 36.6687 50.5077 37.3476 50.8543 37.8814C51.2132 38.434 51.6885 38.7169 52.516 38.9307C53.5017 39.1853 54.3886 39.1318 55.0523 38.7008C55.7742 38.232 56.1739 37.4799 56.3008 36.4868C56.3041 36.4612 56.3072 36.4358 56.3102 36.4106ZM68.2095 117.526C68.2075 117.476 68.1965 117.427 68.1754 117.379L63.6091 107.021C63.5193 106.817 63.2813 106.725 63.0775 106.815C62.8737 106.904 62.7814 107.142 62.8712 107.346L67.4376 117.704C67.4586 117.752 67.4876 117.794 67.5225 117.828L69.1076 121.781C69.3421 122.366 69.1252 123.02 68.6217 123.357L80.888 153.452L95.4239 66.3509L123.793 61.836L123.792 61.8808L123.814 61.8728L157.092 85.0113C157.123 85.0036 157.155 84.9995 157.189 84.9995H170.681L178.798 10.6921L162.174 13.6087L161.472 18.7256C161.469 18.7424 161.466 18.759 161.461 18.7754C160.974 20.5888 159.995 21.5572 158.554 21.5659C157.453 21.5725 156.53 21.0879 155.803 20.1414C155.25 21.1226 154.404 21.6588 153.293 21.7131C152.107 21.7711 151.213 21.286 150.652 20.2999C149.971 21.2187 149.044 21.7104 147.894 21.7519C147.397 21.7699 146.942 21.7108 146.531 21.5726C145.456 21.2107 144.736 20.198 144.746 19.0635L144.77 16.6621L129.426 19.3541L127.163 29.3587C127.114 29.5759 126.898 29.7121 126.681 29.663C126.464 29.6139 126.328 29.398 126.377 29.1808L128.699 18.9144C128.735 18.7558 128.862 18.6343 129.022 18.6062L144.777 15.842L144.828 10.6117C144.845 8.81503 146.221 7.324 148.011 7.16325C148.976 7.07656 149.823 7.43887 150.532 8.22165C151.062 7.27143 151.962 6.80285 153.182 6.85027C154.351 6.89573 155.239 7.38405 155.813 8.28949C156.536 7.10846 157.54 6.45248 158.808 6.35488C160.521 6.22292 161.796 7.39969 164.718 12.3435L179.187 9.80505C179.452 9.75864 179.687 9.97897 179.658 10.246L171.443 85.4465C171.421 85.6511 171.248 85.806 171.043 85.806H157.739L172.363 143.934C172.659 145.113 172.221 146.355 171.251 147.086L169.486 148.417L170.031 151.469L182.573 153.597C184.642 153.948 186.373 155.364 187.128 157.322L187.557 158.435C187.658 158.699 187.463 158.983 187.18 158.983H140.211C140.14 158.983 140.072 158.964 140.014 158.931H135.87C135.812 158.964 135.745 158.983 135.672 158.983H88.7026C88.6308 158.983 88.5635 158.964 88.5051 158.931H82.7119C82.6598 158.956 82.6008 158.971 82.5374 158.971H78.5499C78.3951 158.971 78.254 158.882 78.1868 158.743L74.3101 150.706L73.2548 158.621C73.2281 158.821 73.0572 158.971 72.8551 158.971H44.7374C44.4547 158.971 44.2597 158.687 44.361 158.423L44.9949 156.77C45.6792 154.985 47.1793 153.638 49.0269 153.15L55.9042 151.33L48.7316 130.123L44.1415 131.673C44.0144 131.716 43.8844 131.738 43.7556 131.741C43.5903 131.781 43.4145 131.79 43.2361 131.761L39.0506 131.08L41.6501 158.549C41.6725 158.785 41.4864 158.99 41.2487 158.99H37.2612C37.063 158.99 36.8942 158.846 36.863 158.65L35.3348 149.067L29.8 158.786C29.7282 158.912 29.5945 158.99 29.4496 158.99H13.5807H13.5677L4.49142 158.697C4.21428 158.688 4.02866 158.409 4.12793 158.15L4.76191 156.496C5.44617 154.712 6.94629 153.365 8.79388 152.876L15.8266 151.016L18.8662 127.798L18.6337 127.76C18.1055 127.674 17.6825 127.275 17.5654 126.753L8.44543 86.0885C8.39463 85.862 8.37008 85.6304 8.37227 85.3982C8.38776 83.7552 9.71081 82.4305 11.344 82.4032L11.3207 82.3669L67.8065 82.732L86.5998 118.416L68.2095 117.526ZM98.8194 2.89708C98.6049 2.30296 98.438 1.84939 98.319 1.53697C98.2534 1.36474 98.2027 1.23642 98.1676 1.15362C98.1579 1.13052 98.1496 1.11176 98.1434 1.09806C98.0964 1.03211 98.0687 0.9514 98.0687 0.864233C98.0687 0.641552 98.2492 0.461033 98.4719 0.461033C98.6688 0.461033 98.7292 0.520712 98.8144 0.646834C98.8292 0.668811 98.8413 0.690252 98.8538 0.714941C98.87 0.746924 98.8884 0.787515 98.9103 0.83945C98.9499 0.933045 99.0037 1.06933 99.0725 1.2499C99.1976 1.5781 99.3732 2.05593 99.5999 2.68405C99.6181 2.67688 99.636 2.66959 99.6535 2.66219C101.602 1.8402 106.153 -1.0947 107.565 0.870041C108.493 2.16177 107.983 3.35693 106.035 4.45549C106.783 5.17852 107.329 6.11774 107.568 7.1884L112.446 8.97178C112.777 9.09256 112.805 9.54893 112.492 9.70932L107.992 12.0145L108.534 19.137C108.392 19.0282 108.213 18.9664 108.021 18.9721L107.714 18.9813L107.264 13.0832C106.785 13.1841 106.245 13.0275 105.668 12.641C105.483 12.517 105.434 12.2666 105.558 12.0816C105.682 11.8966 105.932 11.8472 106.117 11.9712C106.589 12.2874 106.937 12.3681 107.202 12.2599L107.167 11.8084C107.155 11.6465 107.241 11.493 107.386 11.419L111.303 9.41233L108.51 8.39157C108.63 9.08003 108.258 9.78206 107.583 10.0527C106.961 10.3026 106.302 10.4396 105.611 10.4638C104.919 10.488 104.253 10.3972 103.614 10.1913C103.186 10.0535 102.842 9.73244 102.674 9.31532C102.364 8.54034 102.74 7.65998 103.515 7.349C104.137 7.09912 104.796 6.9621 105.487 6.93794C105.897 6.92364 106.298 6.94963 106.689 7.01595C106.41 6.10267 105.862 5.31928 105.146 4.74606L95.1646 7.77148C95.1523 7.8876 95.146 8.00522 95.146 8.12397V19.1967L94.7526 19.1965C94.602 19.1965 94.4606 19.2379 94.3396 19.3101V8.12397C94.3396 8.02889 94.3428 7.9344 94.3492 7.84061C92.3117 7.8257 91.2929 7.03745 91.2929 5.47583C91.2929 3.19311 96.3135 3.39072 98.8194 2.89708ZM106.132 7.75801C105.93 7.74128 105.724 7.73656 105.516 7.74385C104.916 7.76478 104.35 7.88262 103.815 8.0974C103.453 8.24252 103.278 8.65335 103.423 9.01502C103.501 9.20967 103.662 9.35948 103.861 9.42383C104.41 9.60074 104.983 9.67881 105.582 9.65788C106.182 9.63696 106.748 9.51911 107.283 9.30434C107.645 9.15921 107.82 8.74838 107.675 8.38672C107.647 8.31591 107.607 8.25104 107.559 8.19405C107.563 8.22802 107.565 8.2626 107.565 8.29767C107.565 8.77087 107.204 9.15447 106.759 9.15447C106.313 9.15447 105.952 8.77087 105.952 8.29767C105.952 8.09313 106.02 7.90532 106.132 7.75801ZM102.133 14.4117C100.544 15.086 98.7098 14.3448 98.0355 12.7562C97.3612 11.1676 98.1024 9.3332 99.691 8.65888C99.896 8.57187 100.133 8.66751 100.22 8.87249C100.307 9.07747 100.211 9.31417 100.006 9.40118C98.8274 9.90148 98.2775 11.2625 98.7778 12.4411C99.2781 13.6198 100.639 14.1697 101.818 13.6694C102.023 13.5824 102.259 13.678 102.346 13.883C102.433 14.088 102.338 14.3247 102.133 14.4117ZM98.4719 1.26743C98.2958 1.26743 98.2347 1.22246 98.1664 1.12739C98.2403 1.21315 98.3498 1.26743 98.4719 1.26743ZM55.5282 127.827L49.4956 129.865L56.8063 151.481C56.881 151.702 56.7531 151.94 56.5274 152L49.2332 153.929C47.6361 154.352 46.3394 155.516 45.7479 157.059L45.3239 158.164H72.5021L73.6887 149.265C73.7416 148.868 74.2776 148.783 74.4515 149.143L78.8031 158.164H81.9377L67.9764 123.91L55.5282 127.827ZM38.228 130.946L19.6625 127.927L16.5911 151.389C16.5698 151.551 16.4526 151.684 16.2944 151.726L9.00011 153.656C7.40305 154.078 6.10633 155.243 5.51485 156.785L5.08376 157.909L13.5872 158.183H29.2152L35.2019 147.671C35.3904 147.34 35.8905 147.431 35.9504 147.807L37.6052 158.183H40.8055L38.228 130.946ZM156.543 158.177H186.593L186.375 157.612C185.723 155.919 184.227 154.695 182.438 154.392L169.616 152.217C169.449 152.188 169.317 152.058 169.287 151.89L168.764 148.961L156.543 158.177ZM104.662 158.177H132.071L132.006 154.698C131.663 154.559 131.303 154.455 130.929 154.392L118.107 152.217C117.94 152.188 117.808 152.058 117.778 151.89L117.203 148.666L104.662 158.177ZM135.814 33.2298C133.983 31.4888 133.01 30.4716 132.897 30.1782C131.05 25.4044 137.638 22.2826 141.505 22.2826C144.098 22.2826 145.707 23.5148 146.333 25.9793C149.593 23.455 153.412 22.7586 157.79 23.8901C159.458 24.3212 161.27 24.8001 163.028 25.4048L153.278 49.5289C151.437 49.0644 149.469 48.3487 147.375 47.3818L146.467 53.6378C146.438 53.8432 146.262 53.9823 146.07 53.9834L139.347 57.5894L139.163 56.7731L145.707 53.2633L148.354 35.0098C147.366 34.5311 146.828 33.6769 146.659 32.5846C146.578 32.0647 146.583 31.5769 146.644 31.0471C145.78 31.444 145.126 32.0217 144.675 32.7787C143.768 34.3044 143.107 36.2424 142.696 38.5934C142.657 38.8179 142.44 38.9653 142.217 38.9188C140.498 38.5608 139.558 38.1254 139.404 37.4465C138.466 37.7132 137.34 38.0336 136.025 38.4077L135.805 41.6033C135.8 41.6754 135.796 41.7475 135.792 41.8195L135.72 41.4988L134.994 41.6456C134.996 41.613 134.998 41.5804 135 41.5478L135.201 38.6424C131.695 39.6401 126.991 40.9787 121.088 42.6582C120.022 42.9615 118.912 42.3433 118.609 41.2773C118.605 41.2625 118.601 41.2477 118.597 41.2328C118.36 40.3201 118.756 39.5273 119.785 38.8546L135.463 34.8417L135.469 34.7608C135.505 34.2316 135.623 33.7157 135.814 33.2298ZM165.411 26.3308C171.502 29.0259 175.665 33.8818 168.279 44.7047C165.456 48.8413 161.449 50.6309 156.258 50.0736L165.411 26.3308ZM155.448 9.37163C155.439 9.35516 155.431 9.33773 155.424 9.31935C155.019 8.23786 154.283 7.70007 153.151 7.65606C152.047 7.61314 151.369 8.07376 151.027 9.09678C151.06 9.15718 151.079 9.22721 151.078 9.30177L151.031 19.193C151.056 19.2268 151.077 19.2659 151.092 19.3103C151.481 20.4535 152.175 20.9604 153.254 20.9077C154.263 20.8584 154.948 20.3031 155.36 19.1759C155.388 19.1 155.433 19.0398 155.489 18.9962L155.448 9.37163ZM156.219 9.23401L156.263 19.3985C156.875 20.3242 157.628 20.7651 158.549 20.7595C159.575 20.7533 160.274 20.0679 160.676 18.5904L161.446 12.981C161.472 12.7915 161.627 12.6464 161.818 12.6336L163.852 12.4971C161.278 8.19725 160.103 7.0639 158.87 7.1589C157.71 7.24822 156.836 7.92272 156.219 9.23401ZM150.304 9.2384C150.302 9.236 150.3 9.23357 150.299 9.23111C149.666 8.29406 148.94 7.88948 148.083 7.96642C146.706 8.09009 145.647 9.2372 145.634 10.6194L145.553 19.0713C145.545 19.8567 146.044 20.5578 146.788 20.8083C147.103 20.9141 147.461 20.9606 147.865 20.946C148.906 20.9085 149.689 20.4192 150.25 19.4428L150.299 9.29627C150.3 9.27661 150.301 9.2573 150.304 9.2384ZM146.876 17.796C146.852 18.0174 146.653 18.1772 146.431 18.153C146.21 18.1288 146.05 17.9297 146.074 17.7084C146.176 16.7768 146.84 16.289 147.909 16.2976C148.981 16.3063 149.628 16.7892 149.668 17.6989C149.678 17.9214 149.505 18.1097 149.283 18.1196C149.061 18.1294 148.872 17.9571 148.862 17.7346C148.843 17.3038 148.583 17.1095 147.903 17.104C147.219 17.0985 146.929 17.3116 146.876 17.796ZM152.26 17.5632C152.236 17.7846 152.037 17.9444 151.815 17.9202C151.594 17.896 151.434 17.6969 151.458 17.4756C151.56 16.544 152.224 16.0562 153.293 16.0648C154.365 16.0734 155.011 16.5564 155.052 17.4661C155.062 17.6885 154.889 17.8769 154.667 17.8867C154.444 17.8966 154.256 17.7243 154.246 17.5018C154.227 17.071 153.967 16.8766 153.286 16.8712C152.603 16.8657 152.313 17.0788 152.26 17.5632ZM157.48 17.5639C157.456 17.7853 157.257 17.9451 157.035 17.9209C156.814 17.8967 156.654 17.6977 156.678 17.4763C156.78 16.5447 157.444 16.0569 158.513 16.0655C159.585 16.0742 160.232 16.5571 160.272 17.4668C160.282 17.6893 160.109 17.8776 159.887 17.8875C159.665 17.8973 159.476 17.725 159.466 17.5025C159.447 17.0717 159.187 16.8774 158.507 16.8719C157.823 16.8664 157.533 17.0795 157.48 17.5639ZM136.29 34.63L143.784 32.7119C143.849 32.5947 143.915 32.4795 143.982 32.3663C144.949 30.7418 146.681 29.8338 149.134 29.6326L149.408 27.7438L139.278 30.6914C138.922 30.7952 138.597 30.9869 138.333 31.2489L137.543 32.0357C136.841 32.7341 136.4 33.6498 136.29 34.63ZM142.291 36.6249C141.84 36.7531 141.139 36.9526 140.187 37.2236C140.186 37.2339 140.187 37.2442 140.188 37.2545C140.19 37.2748 140.207 37.3071 140.255 37.3563C140.33 37.432 140.454 37.5148 140.625 37.5991C140.94 37.7534 141.392 37.9013 141.978 38.0398C142.071 37.551 142.175 37.0794 142.291 36.6249ZM148.478 34.1575L149.015 30.4529C148.465 30.5073 147.961 30.6004 147.503 30.732C147.4 31.3656 147.369 31.9018 147.455 32.461C147.572 33.2134 147.892 33.7891 148.478 34.1575Z" fill="#0C0D0E"/>
</svg>
