<svg width="20" height="20" viewBox="0 0 20 20" fill="none" xmlns="http://www.w3.org/2000/svg">
<g clip-path="url(#clip0_230_7273)">
<path d="M4.16663 12.5H3.33329C2.89127 12.5 2.46734 12.3244 2.15478 12.0118C1.84222 11.6993 1.66663 11.2754 1.66663 10.8333V3.33334C1.66663 2.89131 1.84222 2.46739 2.15478 2.15483C2.46734 1.84227 2.89127 1.66667 3.33329 1.66667H10.8333C11.2753 1.66667 11.6992 1.84227 12.0118 2.15483C12.3244 2.46739 12.5 2.89131 12.5 3.33334V4.16667M9.16663 7.50001H16.6666C17.5871 7.50001 18.3333 8.2462 18.3333 9.16667V16.6667C18.3333 17.5871 17.5871 18.3333 16.6666 18.3333H9.16663C8.24615 18.3333 7.49996 17.5871 7.49996 16.6667V9.16667C7.49996 8.2462 8.24615 7.50001 9.16663 7.50001Z" stroke="black" stroke-width="1.5" stroke-linecap="round" stroke-linejoin="round"/>
</g>
<defs>
<clipPath id="clip0_230_7273">
<rect width="20" height="20" fill="white"/>
</clipPath>
</defs>
</svg>
